#!OML:ASF I:\Actors\actors\Patient Classification 1\Patient 1\Session 1\Subject1.ASF
:FULLY-SPECIFIED
:DEGREES
1167
root -0.356678 17.666 7.44239 10.4142 6.55965 -12.0543
lowerback 10.2563 3.68489 6.20911
upperback 6.2295 5.38302 -1.89414
thorax 1.56516 2.92822 -5.89462
lowerneck -7.86278 0.408518 5.50758
upperneck 17.2765 0.811007 -5.80763
head 6.57974 0.290243 -2.71659
rclavicle -1.43125e-014 -1.59028e-015
rhumerus 37.6709 13.5141 -34.0339
rradius 87.2402
rwrist -16.2803
rhand 9.03349 -36.7465
rfingers 7.12502
rthumb 34.2091 -63.4836
lclavicle -1.43125e-014 -1.59028e-015
lhumerus 38.1875 -71.5543 22.9365
lradius 67.5921
lwrist 74.2074
lhand -14.0946 -5.82011
lfingers 7.12502
lthumb 12.0379 23.8137
rfemur -17.6362 9.84452 28.7016
rtibia 18.12
rfoot -15.0286 -18.404
rtoes -3.7375
lfemur -13.7751 -26.8261 3.73724
ltibia 3.86221
lfoot -4.68468 32.3709
ltoes -12.8668
1168
root -0.349778 17.6682 7.43072 10.4819 6.48543 -12.0518
lowerback 10.2452 3.64191 6.29432
upperback 6.27864 5.33158 -1.93033
thorax 1.62852 2.90981 -5.97398
lowerneck -7.84091 0.576044 5.74428
upperneck 17.1923 1.07672 -6.23297
head 6.56696 0.399153 -2.87214
rclavicle -3.10104e-014 -2.54444e-014
rhumerus 37.8674 12.1546 -33.6679
rradius 84.3293
rwrist -14.4982
rhand 6.19955 -37.0107
rfingers 7.12502
rthumb 31.5134 -64.313
lclavicle -3.10104e-014 -2.54444e-014
lhumerus 40.7593 -71.1742 20.8742
lradius 67.2654
lwrist 74.5037
lhand -14.4049 -5.90113
lfingers 7.12502
lthumb 11.7386 23.75
rfemur -17.6847 9.90845 28.6508
rtibia 18.0051
rfoot -14.9579 -18.4041
rtoes -3.67997
lfemur -13.9137 -26.6113 3.74972
ltibia 3.9439
lfoot -4.59063 32.2266
ltoes -13.0983
1169
root -0.343648 17.6709 7.42028 10.4998 6.45943 -12.0708
lowerback 10.258 3.57795 6.32127
upperback 6.3446 5.24875 -1.96122
thorax 1.68495 2.87405 -6.01458
lowerneck -7.70503 0.740591 5.84172
upperneck 16.9674 1.31415 -6.40955
head 6.48798 0.507107 -2.92377
rclavicle 4.37326e-014 -2.06736e-014
rhumerus 38.222 10.9742 -33.3936
rradius 81.1126
rwrist -12.7242
rhand 3.58397 -37.3598
rfingers 7.12502
rthumb 29.0184 -65.1204
lclavicle 4.37326e-014 -2.06736e-014
lhumerus 43.0326 -70.756 19.0414
lradius 67.0302
lwrist 74.7403
lhand -14.4411 -5.96858
lfingers 7.12502
lthumb 11.7038 23.6845
rfemur -17.676 9.952 28.6272
rtibia 17.874
rfoot -14.9633 -18.3941
rtoes -3.06815
lfemur -13.9991 -26.4642 3.76936
ltibia 4.00143
lfoot -4.49652 32.062
ltoes -13.2919
1170
root -0.339702 17.6746 7.41001 10.4677 6.4892 -12.1569
lowerback 10.3668 3.52689 6.40043
upperback 6.41523 5.19269 -2.00958
thorax 1.7055 2.85284 -6.11207
lowerneck -7.60138 0.853547 5.98004
upperneck 16.7325 1.45512 -6.48337
head 6.40587 0.579021 -2.95668
rclavicle -2.78299e-014 -1.59028e-015
rhumerus 38.5578 9.68206 -33.4902
rradius 77.4773
rwrist -10.4747
rhand 2.40481 -36.8934
rfingers 7.12502
rthumb 27.8917 -64.8424
lclavicle -2.78299e-014 -1.59028e-015
lhumerus 45.7868 -70.3294 16.7101
lradius 66.8705
lwrist 74.9036
lhand -14.3807 -6.05078
lfingers 7.12502
lthumb 11.762 23.599
rfemur -17.6242 9.9291 28.7064
rtibia 17.7561
rfoot -14.9624 -18.3741
rtoes -2.53316
lfemur -14.0514 -26.368 3.863
ltibia 4.04013
lfoot -4.45104 31.9265
ltoes -13.262
1171
root -0.337433 17.6785 7.39928 10.4751 6.60081 -12.2233
lowerback 10.4909 3.46453 6.40461
upperback 6.44712 5.11711 -2.05656
thorax 1.66537 2.81593 -6.16789
lowerneck -7.6373 0.933724 6.20776
upperneck 16.7475 1.5655 -6.68882
head 6.42684 0.629549 -3.05321
rclavicle -2.78299e-014 1.90833e-014
rhumerus 38.9102 8.44833 -33.9688
rradius 73.6368
rwrist -8.5457
rhand 1.82737 -36.3111
rfingers 7.12502
rthumb 27.3395 -64.3485
lclavicle -2.78299e-014 1.90833e-014
lhumerus 48.3943 -69.9165 14.5962
lradius 66.6883
lwrist 74.9377
lhand -14.2204 -5.83801
lfingers 7.12502
lthumb 11.9166 23.8028
rfemur -17.6274 9.84029 28.7697
rtibia 17.6627
rfoot -14.9432 -18.3951
rtoes -2.22645
lfemur -14.2161 -26.2918 3.99565
ltibia 4.07693
lfoot -4.16363 31.7375
ltoes -13.8953
1172
root -0.335992 17.6818 7.38924 10.5202 6.76589 -12.2761
lowerback 10.5707 3.40051 6.35991
upperback 6.46965 5.03297 -2.10121
thorax 1.63266 2.77304 -6.18999
lowerneck -7.87017 1.02804 6.55123
upperneck 17.05 1.71942 -7.11316
head 6.57929 0.687841 -3.24143
rclavicle 7.31528e-014 -2.8625e-014
rhumerus 39.2998 7.32298 -34.737
rradius 69.5794
rwrist -6.97763
rhand 1.34132 -36.1917
rfingers 7.12502
rthumb 26.8745 -64.3014
lclavicle 7.31528e-014 -2.8625e-014
lhumerus 50.709 -69.4875 12.8696
lradius 66.4692
lwrist 74.8893
lhand -13.8518 -5.11309
lfingers 7.12502
lthumb 12.272 24.5068
rfemur -17.6805 9.68673 28.8193
rtibia 17.5806
rfoot -14.8636 -18.4475
rtoes -2.38686
lfemur -14.4721 -26.2433 4.15954
ltibia 4.12697
lfoot -3.89055 31.5536
ltoes -14.464
1173
root -0.334905 17.6842 7.37656 10.503 6.86729 -12.2684
lowerback 10.7506 3.40167 6.25988
upperback 6.51705 5.03495 -2.20218
thorax 1.58571 2.77322 -6.25261
lowerneck -8.25502 1.14933 6.90578
upperneck 17.3176 1.86378 -7.34735
head 6.74799 0.753854 -3.37058
rclavicle 1.90833e-014 -2.8625e-014
rhumerus 39.7087 6.37602 -35.5697
rradius 65.232
rwrist -5.81361
rhand 0.145617 -36.4523
rfingers 7.12502
rthumb 25.7298 -64.733
lclavicle 1.90833e-014 -2.8625e-014
lhumerus 53.3434 -69.0013 10.9717
lradius 66.2427
lwrist 74.7899
lhand -13.7625 -4.15844
lfingers 7.12502
lthumb 12.3581 25.4563
rfemur -17.7044 9.60449 28.7907
rtibia 17.5539
rfoot -14.7897 -18.5274
rtoes -2.59661
lfemur -14.627 -26.2919 4.2102
ltibia 4.21919
lfoot -3.89527 31.5202
ltoes -14.2678
